<svg width="12" height="12" viewBox="0 0 12 12" fill="none" xmlns="http://www.w3.org/2000/svg">
  <path fill-rule="evenodd" clip-rule="evenodd" d="M1.53165 0.252334C1.19689 -0.0841115 0.654149 -0.0841114 0.319395 0.252334C-0.0153588 0.58878 -0.0153588 1.13427 0.319395 1.47071L4.78973 5.96364L0.251066 10.5252C-0.0836885 10.8617 -0.0836885 11.4072 0.251066 11.7436C0.58582 12.0801 1.12856 12.0801 1.46332 11.7436L6.00199 7.18202L10.5364 11.7393C10.8711 12.0758 11.4139 12.0758 11.7486 11.7393C12.0834 11.4029 12.0834 10.8574 11.7486 10.5209L7.21424 5.96364L11.6803 1.47503C12.015 1.13858 12.015 0.593096 11.6803 0.25665C11.3455 -0.0797956 10.8028 -0.0797954 10.468 0.25665L6.00199 4.74526L1.53165 0.252334Z" fill="#47454B"/>
</svg>
